<svg width="150" height="150" viewBox="0 0 150 150" fill="none" xmlns="http://www.w3.org/2000/svg">
<rect width="150" height="150" rx="75" fill="#424242"/>
<path d="M94.7973 39.29L107.164 60.71C115.963 75.95 104.964 95 87.3668 95H62.6332C45.0355 95 34.037 75.95 42.8358 60.71L55.2026 39.29C64.0015 24.05 85.9985 24.05 94.7973 39.29Z" stroke="white" stroke-width="3"/>
<line x1="73.98" y1="46.3401" x2="73.98" y2="57.6201" stroke="white" stroke-width="3" stroke-linecap="round"/>
<line x1="57.8013" y1="70.8799" x2="66.6" y2="79.6786" stroke="white" stroke-width="3" stroke-linecap="round"/>
<line x1="90.96" y1="70.4814" x2="82.1613" y2="79.2801" stroke="white" stroke-width="3" stroke-linecap="round"/>
<rect x="66.6" y="94.3999" width="16.8" height="8.4" stroke="white" stroke-width="3" stroke-linejoin="round"/>
<path d="M71.64 102.8V117.92C71.64 120.24 73.5204 122.12 75.84 122.12H94.32" stroke="white" stroke-width="3" stroke-linecap="round"/>
<path d="M71.64 102.8V117.92C71.64 120.24 73.5204 122.12 75.84 122.12H94.32" stroke="white" stroke-width="3" stroke-linecap="round"/>
<path d="M79.2 102.8V112.88C79.2 113.808 79.9522 114.56 80.88 114.56H94.32" stroke="white" stroke-width="3" stroke-linecap="round"/>
<path d="M102.71 109.56H95.1644V107.973L97.8739 105.234C98.6761 104.412 99.2003 103.843 99.4464 103.528C99.6925 103.208 99.8697 102.913 99.978 102.642C100.086 102.372 100.14 102.091 100.14 101.801C100.14 101.368 100.02 101.045 99.7786 100.834C99.5424 100.622 99.2249 100.516 98.8263 100.516C98.4079 100.516 98.0018 100.612 97.6081 100.804C97.2143 100.996 96.8034 101.269 96.3752 101.624L95.1348 100.154C95.6664 99.7015 96.1069 99.3816 96.4564 99.1946C96.8058 99.0076 97.1873 98.8648 97.6007 98.7664C98.0141 98.663 98.4768 98.6113 98.9887 98.6113C99.663 98.6113 100.259 98.7344 100.775 98.9805C101.292 99.2266 101.693 99.5711 101.979 100.014C102.264 100.457 102.407 100.964 102.407 101.535C102.407 102.032 102.318 102.5 102.141 102.938C101.969 103.371 101.698 103.816 101.329 104.274C100.965 104.732 100.32 105.384 99.3947 106.23L98.0068 107.537V107.641H102.71V109.56ZM111.348 109.56H103.802V107.973L106.512 105.234C107.314 104.412 107.838 103.843 108.084 103.528C108.33 103.208 108.508 102.913 108.616 102.642C108.724 102.372 108.778 102.091 108.778 101.801C108.778 101.368 108.658 101.045 108.417 100.834C108.18 100.622 107.863 100.516 107.464 100.516C107.046 100.516 106.64 100.612 106.246 100.804C105.852 100.996 105.441 101.269 105.013 101.624L103.773 100.154C104.304 99.7015 104.745 99.3816 105.094 99.1946C105.444 99.0076 105.825 98.8648 106.239 98.7664C106.652 98.663 107.115 98.6113 107.627 98.6113C108.301 98.6113 108.896 98.7344 109.413 98.9805C109.93 99.2266 110.331 99.5711 110.617 100.014C110.902 100.457 111.045 100.964 111.045 101.535C111.045 102.032 110.956 102.5 110.779 102.938C110.607 103.371 110.336 103.816 109.967 104.274C109.603 104.732 108.958 105.384 108.033 106.23L106.645 107.537V107.641H111.348V109.56ZM119.926 104.163C119.926 106.048 119.616 107.444 118.996 108.349C118.381 109.255 117.431 109.708 116.146 109.708C114.901 109.708 113.961 109.24 113.326 108.305C112.696 107.37 112.381 105.989 112.381 104.163C112.381 102.258 112.689 100.856 113.304 99.955C113.919 99.0494 114.867 98.5966 116.146 98.5966C117.392 98.5966 118.332 99.0691 118.967 100.014C119.606 100.959 119.926 102.342 119.926 104.163ZM114.648 104.163C114.648 105.487 114.761 106.437 114.987 107.013C115.219 107.584 115.605 107.869 116.146 107.869C116.678 107.869 117.062 107.579 117.298 106.998C117.534 106.417 117.652 105.472 117.652 104.163C117.652 102.839 117.532 101.889 117.291 101.313C117.054 100.733 116.673 100.442 116.146 100.442C115.61 100.442 115.226 100.733 114.995 101.313C114.763 101.889 114.648 102.839 114.648 104.163ZM123.618 109.56L120.473 101.306H122.828L124.422 106.009C124.6 106.604 124.71 107.168 124.755 107.7H124.799C124.824 107.227 124.934 106.664 125.131 106.009L126.719 101.306H129.074L125.929 109.56H123.618Z" fill="white"/>
</svg>
