<svg width="150" height="150" viewBox="0 0 150 150" fill="none" xmlns="http://www.w3.org/2000/svg">
<rect width="150" height="150" rx="75" fill="#424242"/>
<path d="M76.512 69.3306V69.3473" stroke="white" stroke-width="3" stroke-miterlimit="10"/>
<path d="M42.3404 73.4172L41.7056 77.3554" stroke="white" stroke-width="3" stroke-linecap="round" stroke-linejoin="round"/>
<path d="M38.0097 52.9309C38.0097 53.4437 38.0097 53.9565 38.0451 54.4517C38.0451 55.1237 38.0982 55.778 38.1512 56.4322C38.1866 56.8566 38.2219 57.281 38.275 57.7055C38.4889 60.1449 38.8969 62.5634 39.4952 64.938C40.1936 67.7365 41.1466 70.4652 42.3422 73.0901V73.1078C42.5014 73.4615 42.6605 73.8328 42.8373 74.1865M56.0823 84.7258C55.481 84.3722 54.8798 84.0008 54.3139 83.6295C51.7236 82.0907 49.3607 80.198 47.2936 78.0061L56.0823 84.7258Z" stroke="white" stroke-width="3" stroke-miterlimit="10" stroke-linecap="round"/>
<path d="M47.5235 77.6719L47.2936 78.0079L44.3404 82.3757L43.4209 90.74H39.8842V82.3757L41.7056 77.3536V77.3359L42.8373 74.1882" stroke="white" stroke-width="3" stroke-linecap="round" stroke-linejoin="round"/>
<path d="M63.4386 71.304C61.1925 72.7524 59.3433 74.7384 58.0587 77.0822C56.7742 79.4259 56.0948 82.0531 56.0823 84.7257V84.8141C56.0792 87.3874 56.698 89.9233 57.886 92.2059C58.2016 92.8173 58.556 93.408 58.947 93.9742L59.4245 105.398L59.4952 107.06C59.5286 107.652 59.3603 108.238 59.0177 108.722C58.7868 109.09 58.4729 109.398 58.1013 109.622C57.7297 109.846 57.3108 109.98 56.878 110.013L51.1132 110.473L41.2105 111.286C40.3932 111.355 39.6334 111.734 39.0884 112.347C38.8851 112.578 38.7527 112.863 38.7072 113.167C38.6617 113.471 38.7051 113.782 38.8321 114.062C38.9591 114.343 39.1644 114.58 39.4232 114.746C39.682 114.913 39.9833 115.001 40.2909 115H63.3856C63.557 114.998 63.7282 114.986 63.8984 114.965C64.4902 114.877 65.0496 114.639 65.5233 114.274C65.997 113.909 66.369 113.428 66.604 112.878L66.8692 112.224C67.1506 111.585 67.2426 110.879 67.1345 110.19L65.9497 102.356C65.834 101.567 65.972 100.761 66.3439 100.056C66.7158 99.3503 67.3022 98.7811 68.0186 98.4304C69.7933 97.4655 71.3567 96.1547 72.6164 94.5754C72.634 94.5401 72.6517 94.5224 72.6694 94.487C73.5037 93.4504 73.9535 92.1571 73.9426 90.8265" stroke="white" stroke-width="3" stroke-miterlimit="10" stroke-linecap="round"/>
<path d="M37.9461 53.3553C36.3503 50.6391 32.5514 50.4764 30.8515 50.7346C30.3249 50.5555 29.8629 50.2251 29.5232 49.7847C29.1835 49.3444 28.9812 48.8136 28.9416 48.2589C28.8755 47.8256 28.9202 47.3826 29.0718 46.9713C29.2233 46.56 29.4766 46.1938 29.8081 45.907L32.6021 44.1793V42.9415C32.601 42.6653 32.6605 42.3922 32.7767 42.1416C32.8928 41.891 33.0626 41.6691 33.2741 41.4914L34.4412 40.5011L31.1167 36.0803C31.0289 35.9649 30.9807 35.8242 30.9792 35.6792C30.9777 35.5342 31.023 35.3926 31.1084 35.2755C31.1938 35.1583 31.3147 35.0718 31.4532 35.0288C31.5917 34.9858 31.7404 34.9887 31.8771 35.0369L35.8559 36.3809L39.9408 38.9627L44.3617 36.6461C45.3207 36.1403 46.3897 35.8791 47.4739 35.8857H48.6411C48.8208 35.8857 48.9959 35.9427 49.1411 36.0485C49.2864 36.1543 49.3943 36.3034 49.4494 36.4745C49.5044 36.6456 49.5038 36.8297 49.4475 37.0004C49.3912 37.171 49.2822 37.3195 49.1362 37.4242L43.9903 41.2085C43.4702 41.5824 43.0764 42.106 42.8616 42.7095C42.6467 43.3129 42.621 43.9676 42.7878 44.586C42.9293 45.0989 43.0708 45.6117 43.2476 46.1068C44.0948 48.4322 45.5365 50.495 47.4291 52.0897C49.3217 53.6845 51.5992 54.7555 54.0345 55.1961C57.7548 55.9252 61.3398 57.2256 64.6623 59.0511C69.2969 61.5949 73.336 65.0975 76.5102 69.3252V69.3429C76.6871 69.5551 76.8462 69.8204 77.0231 70.0679C77.0231 70.0856 77.0408 70.0856 77.0408 70.1033C77.8492 71.3344 78.5193 72.651 79.039 74.0291C80.0452 76.741 80.4962 79.6275 80.3653 82.5171C80.3476 82.7647 80.3476 82.9946 80.3476 83.2068C80.3432 85.2931 80.5208 87.3759 80.8781 89.4314C81.2554 91.7331 81.8656 93.9905 82.6995 96.1688C82.7654 96.3731 82.8421 96.5738 82.9294 96.77C83.0421 97.1091 83.178 97.4399 83.3361 97.7603L83.3538 97.7957C83.7463 99.0069 84.371 100.13 85.1928 101.102C86.4042 102.59 88.0381 103.675 89.879 104.215C92.5048 104.859 95.1685 105.337 97.8542 105.647L130.586 110.563C122.341 111.299 101.762 110.563 89.879 110.563C77.9957 110.563 73.596 101.703 72.3228 96.1688" stroke="white" stroke-width="3" stroke-linecap="round" stroke-linejoin="round"/>
</svg>
