<svg width="150" height="150" viewBox="0 0 150 150" fill="none" xmlns="http://www.w3.org/2000/svg">
<rect width="150" height="150" rx="75" fill="#424242"/>
<path d="M96.0738 44.2174V36M81.5246 50.2466L75.705 44.4269M110.623 79.3682L116.443 85.1646M116.652 64.7957H124.87M110.623 50.2466L116.443 44.4269M86.7577 53.7849C89.3789 51.5651 92.7058 50.3529 96.1407 50.3661C99.5755 50.3793 102.893 51.6171 105.497 53.8571C108.102 56.0971 109.822 59.1928 110.348 62.5876C110.875 65.9825 110.173 69.4538 108.37 72.3776M71.1656 55.9731C81.5479 55.4144 92.3492 61.3971 95.9341 75.0849C99.9325 75.4117 103.663 77.2272 106.387 80.1722C109.111 83.1172 110.631 86.9773 110.645 90.989C110.66 95.0007 109.168 98.8718 106.466 101.837C103.763 104.801 100.046 106.644 96.0505 107H51.2856C29.8459 104.09 26.9128 72.8734 51.2856 68.6833C53.1929 65.0068 56.034 61.8969 59.5235 59.6659C63.013 57.4349 67.0281 56.1613 71.1656 55.9731Z" stroke="white" stroke-width="3" stroke-linecap="round" stroke-linejoin="round"/>
</svg>
